<svg width="32" height="32" viewBox="0 0 32 32" xmlns="http://www.w3.org/2000/svg">
  <!-- Coin circle -->
  <circle cx="16" cy="16" r="13" fill="none" stroke="currentColor" stroke-width="2"/>

  <!-- Pound symbol as path for better rendering -->
  <path d="M12 24 L12 22 L13 22 C13 22 13 20 13 18 L10 18 L10 16 L13 16 L13 12 C13 9 15 7 18 7 C20 7 22 8 22 8 L21 11 C21 11 20 10 18.5 10 C17 10 16 11 16 12 L16 16 L20 16 L20 18 L16 18 C16 20 16 22 16 22 L22 22 L22 24 Z"
        fill="currentColor"/>
</svg>